<svg width="148" height="119" viewBox="0 0 148 119" fill="none" xmlns="http://www.w3.org/2000/svg">
<g id="Group 5" opacity="0.05">
<g id="Group">
<path id="Vector" fill-rule="evenodd" clip-rule="evenodd" d="M148.032 37.1077C148.096 38.0205 148.032 74.2304 148.032 74.2304L111.113 74.2304V53.0539C111.113 38.5333 105.199 37.1077 90.7635 37.1077H74.2202V0L111.113 0C138.436 0 148.032 17.4148 148.032 37.1077Z" fill="#0D1B2A"/>
</g>
<g id="Group_2">
<path id="Vector_2" fill-rule="evenodd" clip-rule="evenodd" d="M0.40625 74.2191C0.34288 75.1319 0.40625 114.31 0.40625 114.31L37.3256 114.31V90.1652C37.3256 75.6446 43.2395 74.2191 57.6749 74.2191H74.2183V37.1113L37.3256 37.1113C10.0022 37.1113 0.40625 54.5261 0.40625 74.2191Z" fill="#0D1B2A"/>
</g>
<g id="Group_3">
<path id="Vector_3" fill-rule="evenodd" clip-rule="evenodd" d="M148.032 111.338C148.096 112.251 148.032 149.164 148.032 149.164H111.113V127.283C111.113 112.763 105.199 111.338 90.7635 111.338H74.2202V74.2295H111.113C138.436 74.2295 148.032 91.645 148.032 111.338Z" fill="#0D1B2A"/>
</g>
</g>
</svg>
