<svg width="284" height="285" viewBox="0 0 284 285" fill="none" xmlns="http://www.w3.org/2000/svg">
<g opacity="0.1">
<path fill-rule="evenodd" clip-rule="evenodd" d="M283.148 70.9406C283.269 72.6856 283.148 141.91 283.148 141.91L212.567 141.91V101.425C212.567 73.6658 201.262 70.9406 173.665 70.9406H142.038V0L212.567 0C264.803 0 283.148 33.2927 283.148 70.9406Z" fill="#95A4B5"/>
<path fill-rule="evenodd" clip-rule="evenodd" d="M0.924866 141.888C0.803726 143.633 0.924866 218.532 0.924866 218.532L71.5054 218.532V172.373C71.5054 144.614 82.8111 141.888 110.408 141.888H142.035V70.9478L71.5054 70.9478C19.2699 70.9478 0.924866 104.24 0.924866 141.888Z" fill="#95A4B5"/>
<path fill-rule="evenodd" clip-rule="evenodd" d="M283.148 212.85C283.269 214.595 283.148 285.165 283.148 285.165H212.567V243.334C212.567 215.575 201.262 212.85 173.665 212.85H142.038V141.908H212.567C264.803 141.908 283.148 175.202 283.148 212.85Z" fill="#95A4B5"/>
</g>
</svg>
