<svg width="238" height="177" viewBox="0 0 238 177" fill="none" xmlns="http://www.w3.org/2000/svg">
<g opacity="0.1">
<path fill-rule="evenodd" clip-rule="evenodd" d="M237.57 59.705C237.672 61.1736 237.57 119.434 237.57 119.434H178.168V85.3617C178.168 61.9986 168.653 59.705 145.427 59.705H118.809V0L178.168 0C222.13 0 237.57 28.0198 237.57 59.705Z" fill="#95A4B5"/>
<path fill-rule="evenodd" clip-rule="evenodd" d="M0.0453949 119.416C-0.0565491 120.885 0.0453949 183.921 0.0453949 183.921H59.4473V145.073C59.4473 121.709 68.9625 119.416 92.1886 119.416H118.806V59.7109L59.4473 59.7109C15.4849 59.7109 0.0453949 87.7307 0.0453949 119.416Z" fill="#95A4B5"/>
<path fill-rule="evenodd" clip-rule="evenodd" d="M237.57 179.138C237.672 180.607 237.57 240 237.57 240H178.168V204.794C178.168 181.432 168.653 179.138 145.427 179.138H118.809V119.432L178.168 119.432C222.13 119.432 237.57 147.453 237.57 179.138Z" fill="#95A4B5"/>
</g>
</svg>
