<svg width="110" height="29" opacity="0.2" viewBox="0 0 110 29" fill="none" xmlns="http://www.w3.org/2000/svg">
<path fill-rule="evenodd" clip-rule="evenodd" d="M95.5148 28.7169C95.8487 28.7414 109.095 28.7169 109.095 28.7169L109.095 14.417L101.348 14.417C96.0363 14.417 95.5148 12.1264 95.5148 6.53512L95.5148 0.127441L81.9399 0.127441L81.9399 14.417C81.9399 25.0001 88.3107 28.7169 95.5148 28.7169Z" fill="white"/>
<path fill-rule="evenodd" clip-rule="evenodd" d="M27.436 14.2895C27.4593 14.641 27.436 28.8556 27.436 28.8556L13.851 28.8556L13.851 20.4297C13.851 14.8384 11.6749 14.2895 6.36321 14.2895L0.27588 14.2895L0.275879 0L13.851 -1.00388e-06C23.905 -1.74737e-06 27.436 6.70627 27.436 14.2895Z" fill="white"/>
<path fill-rule="evenodd" clip-rule="evenodd" d="M27.4732 14.425C27.4499 14.7765 27.4732 28.72 27.4732 28.72L41.0582 28.72L41.0582 20.5655C41.0582 14.9739 43.2343 14.425 48.546 14.425L54.6333 14.425L54.6333 0.135742L41.0582 0.135742C31.0041 0.135742 27.4732 6.84175 27.4732 14.425Z" fill="white"/>
<path fill-rule="evenodd" clip-rule="evenodd" d="M81.9062 14.5664C81.9295 14.2149 81.9062 0.000373236 81.9062 0.000373236L68.3212 0.000374492L68.3212 8.42626C68.3212 14.0175 66.1451 14.5664 60.8334 14.5664L54.7461 14.5664L54.7461 28.856L68.3212 28.856C78.3752 28.856 81.9062 22.1497 81.9062 14.5664Z" fill="white"/>
</svg>
