<svg width="391" height="36" viewBox="0 0 391 36" fill="none" xmlns="http://www.w3.org/2000/svg">
<path d="M313 4.7417H324.239V7.0068H320.453C320.241 7.0068 320.069 7.17995 320.069 7.39323V17.0709H317.171V7.39323C317.171 7.17995 316.999 7.0068 316.786 7.0068H313V4.7417Z" fill="white"/>
<path d="M335.505 17.0709H325.916V4.7417H335.505V7.0068H329.214C329.002 7.0068 328.829 7.17995 328.829 7.39323V9.42744C328.829 9.64142 329.002 9.81457 329.214 9.81457H335.263V11.998H329.214C329.002 11.998 328.829 12.1712 328.829 12.3851V14.4356C328.829 14.6495 329.002 14.8227 329.214 14.8227H335.505V17.0709Z" fill="white"/>
<path d="M347.485 4.7417V7.0068H341.015C340.803 7.0068 340.631 7.17995 340.631 7.39323V14.4356C340.631 14.6495 340.803 14.8227 341.015 14.8227H347.485V17.0709H342.729C340.823 17.0709 339.551 16.8604 338.765 16.1263C337.984 15.397 337.716 14.1737 337.716 12.2401V9.57244C337.716 7.6417 337.935 6.41624 338.669 5.6835C339.403 4.95146 340.621 4.7417 342.519 4.7417H347.485Z" fill="white"/>
<path d="M361.516 4.7417V17.0709H358.617V12.369C358.617 12.155 358.445 11.9818 358.233 11.9818H350.83L352.787 12.8434V17.0709H349.873V4.7417H352.787V9.41125C352.787 9.62523 352.959 9.79838 353.171 9.79838H358.233C358.445 9.79838 358.617 9.62523 358.617 9.41125V4.7417H361.516Z" fill="white"/>
<path d="M376.273 4.7417V17.0709H371.137L367.431 7.28835C367.366 7.11449 367.185 7.01242 367.002 7.0462C366.82 7.07999 366.687 7.23978 366.687 7.42631V17.0709H364.016V4.7417H369.167L372.857 14.5235C372.923 14.6981 373.103 14.8009 373.286 14.7671C373.468 14.7333 373.601 14.5728 373.601 14.3863V4.7417H376.273Z" fill="white"/>
<path d="M390.386 12.3379C390.386 14.2644 390.118 15.4877 389.337 16.2184C388.55 16.9539 387.279 17.1693 385.373 17.1693H383.594C381.688 17.1693 380.416 16.9539 379.63 16.2184C378.849 15.4877 378.581 14.2644 378.581 12.3379V9.47589C378.581 7.55007 378.848 6.33095 379.629 5.60454C380.415 4.8718 381.688 4.66064 383.594 4.66064H385.373C387.279 4.66064 388.551 4.8718 389.338 5.60454C390.118 6.33095 390.386 7.55007 390.386 9.47589V12.3379ZM387.487 13.4852V8.34476C387.487 7.60569 386.892 7.00739 386.158 7.00739C385.213 7.00739 383.769 7.00739 382.825 7.00739C382.091 7.00739 381.495 7.60569 381.495 8.34476C381.495 9.69129 381.495 12.1394 381.495 13.4852C381.495 14.2243 382.091 14.8233 382.825 14.8233C383.769 14.8233 385.213 14.8233 386.158 14.8233C386.892 14.8233 387.487 14.2243 387.487 13.4852Z" fill="white"/>
<path d="M326.257 35.8524V23.5859H332.794C335.55 23.5859 337.616 24.5207 337.616 26.9517C337.616 27.6746 337.488 28.1735 337.222 28.5488C336.954 28.928 336.554 29.1763 336.049 29.4191C335.912 29.4852 335.827 29.6261 335.831 29.7788C335.835 29.9314 335.928 30.0674 336.069 30.1257C336.574 30.3347 336.92 30.5632 337.151 30.8304C337.406 31.1246 337.512 31.4637 337.561 31.852C337.618 32.3057 337.599 32.8203 337.599 33.4081V35.8524H334.686V32.9977C334.686 32.0542 333.926 31.2893 332.988 31.2893C330.884 31.2893 327.136 31.314 327.136 31.314L329.154 32.1827V35.8524H326.257ZM329.538 25.8363C329.326 25.8363 329.154 26.0094 329.154 26.2229V28.6845C329.154 28.898 329.326 29.0715 329.538 29.0715H334.302C334.514 29.0715 334.686 28.898 334.686 28.6845C334.686 28.6845 334.686 28.1283 334.686 27.5447C334.686 26.6011 333.926 25.8363 332.988 25.8363C331.578 25.8363 329.538 25.8363 329.538 25.8363Z" fill="white"/>
<path d="M320.207 31.9526H313.822L315.897 32.6423V35.8524H313V23.5859H320.207C321.482 23.5859 322.457 23.8424 323.106 24.5041C323.762 25.1726 324.069 26.235 324.069 27.7774C324.069 29.3192 323.762 30.3773 323.107 31.0419C322.458 31.7 321.482 31.9526 320.207 31.9526ZM320.818 29.7185C321.03 29.7185 321.202 29.5454 321.202 29.3319C321.202 29.3319 321.202 28.3805 321.202 27.5304C321.202 27.0812 321.025 26.6503 320.709 26.3323C320.393 26.0146 319.965 25.8363 319.518 25.8363C318.178 25.8363 316.281 25.8363 316.281 25.8363C316.069 25.8363 315.897 26.0094 315.897 26.2229V29.3319C315.897 29.5454 316.069 29.7185 316.281 29.7185H320.818Z" fill="white"/>
<path d="M351.566 31.1694C351.566 33.0952 351.298 34.3186 350.517 35.0499C349.731 35.7855 348.459 36.0001 346.553 36.0001H344.774C342.869 36.0001 341.597 35.7855 340.811 35.0499C340.03 34.3186 339.762 33.0952 339.762 31.1694V28.3067C339.762 26.3816 340.029 25.1625 340.809 24.4354C341.597 23.7033 342.868 23.4922 344.774 23.4922H346.553C348.46 23.4922 349.732 23.7033 350.518 24.4354C351.299 25.1625 351.566 26.3816 351.566 28.3067V31.1694ZM348.669 32.3167V27.1756C348.669 26.4372 348.073 25.8382 347.338 25.8382C346.394 25.8382 344.95 25.8382 344.006 25.8382C343.271 25.8382 342.676 26.4372 342.676 27.1756C342.676 28.5221 342.676 30.9702 342.676 32.3167C342.676 33.0551 343.271 33.6541 344.006 33.6541C344.95 33.6541 346.394 33.6541 347.338 33.6541C348.073 33.6541 348.669 33.0551 348.669 32.3167Z" fill="white"/>
<path d="M368.589 23.5732V35.9031H365.916V25.9327C365.916 25.737 365.771 25.5723 365.577 25.549C365.384 25.5258 365.204 25.6518 365.158 25.8418L362.739 35.9031H359.723L357.304 25.8742C357.258 25.6842 357.078 25.5582 356.885 25.5814C356.692 25.6046 356.546 25.7693 356.546 25.9657V35.9031H353.874V23.5732H358.875L360.939 32.1704C360.98 32.3457 361.137 32.4682 361.316 32.4668C361.495 32.4647 361.649 32.3394 361.687 32.1634L363.577 23.5732H368.589Z" fill="white"/>
<path d="M0.648926 35.9998H10.8287V26.0609L3.76242 23.4021C3.76242 23.4021 14.5658 23.4021 20.4082 23.4021C22.4228 23.4021 24.0573 25.0365 24.0573 27.0511C24.0573 30.7711 24.0573 35.9998 24.0573 35.9998H34.281V28.1842C34.281 23.402 34.6836 20.3218 29.3704 18.1347C32.5396 16.617 34.326 14.9206 34.326 10.3595C34.326 3.03533 28.2212 0 19.8709 0H0.648926V35.9998ZM10.8287 8.34761C10.8287 8.34761 16.4923 8.34761 20.4082 8.34761C22.4228 8.34761 24.0573 9.98208 24.0573 11.9966C24.0573 13.6078 24.0573 15.1434 24.0573 15.1434H10.8287V8.34761Z" fill="white"/>
<path d="M76.1862 35.9998L63.3207 0H49.428L36.5625 35.9998H45.9435L48.445 29.0755H63.991L66.4476 35.9998H76.1862ZM61.1318 21.1296H51.2593L56.1735 7.32235L61.1318 21.1296Z" fill="white"/>
<path d="M99.5021 25.2342C107.276 25.2342 111.296 21.8862 111.296 12.6391C111.296 3.39297 107.276 0 99.5021 0H78.4229V35.9998H88.6026V27.3674L81.5363 25.2342H99.5021ZM101.2 16.9306H88.6026V8.34761C88.6026 8.34761 93.8313 8.34761 97.5513 8.34761C99.5659 8.34761 101.2 9.98208 101.2 11.9966C101.2 14.3338 101.2 16.9306 101.2 16.9306Z" fill="white"/>
<path d="M125.233 0H115.053V36H125.233V0Z" fill="white"/>
<path d="M153.873 26.2442C153.873 27.0457 153.223 27.6962 152.421 27.6962C148.892 27.6962 140.153 27.6962 140.153 27.6962V8.34761H152.421C153.223 8.34761 153.873 8.99816 153.873 9.80057C153.873 13.3912 153.873 22.6535 153.873 26.2442ZM149.136 0H129.974V35.9998H149.136C160.392 35.9998 164.053 33.0984 164.053 21.6642V14.3356C164.053 2.94637 160.392 0 149.136 0Z" fill="white"/>
<path d="M230.825 0H220.646V36H230.825V0Z" fill="white"/>
<path d="M255.265 35.9998C263.795 35.9998 267.412 32.2942 267.412 24.7894C267.412 17.1966 263.795 13.8926 255.265 13.8926H244.808V8.34761H265.09V0H246.997C238.467 0 234.852 3.57087 234.852 11.0756C234.852 18.5354 238.467 22.0174 246.997 22.0174H257.5V27.6962H236.013V35.9998H255.265Z" fill="white"/>
<path d="M300.022 35.9998V27.6962H281.572V22.0623H299.352V13.9375H281.572V8.34761H300.022V0H271.393V35.9998H300.022Z" fill="white"/>
<path d="M182.272 35.9998H192.452V26.0609L185.385 23.4021C185.385 23.4021 196.189 23.4021 202.031 23.4021C204.046 23.4021 205.68 25.0365 205.68 27.0511C205.68 30.7711 205.68 35.9998 205.68 35.9998H215.904V28.1842C215.904 23.402 216.307 20.3218 210.993 18.1347C214.163 16.617 215.949 14.9206 215.949 10.3595C215.949 3.03533 209.844 0 201.494 0H182.272V35.9998ZM192.452 8.34761C192.452 8.34761 198.115 8.34761 202.031 8.34761C204.046 8.34761 205.68 9.98208 205.68 11.9966C205.68 13.6078 205.68 15.1434 205.68 15.1434H192.452V8.34761Z" fill="white"/>
</svg>
