<svg width="346" height="350" viewBox="0 0 346 350" fill="none" xmlns="http://www.w3.org/2000/svg">
<g opacity="0.05">
<path fill-rule="evenodd" clip-rule="evenodd" d="M345.861 86.9202C346.01 89.0584 345.861 173.875 345.861 173.875L259.382 173.875V124.272C259.382 90.2593 245.53 86.9202 211.716 86.9202H172.966V0L259.382 0C323.384 0 345.861 40.792 345.861 86.9202Z" fill="#95A4B5"/>
<path fill-rule="evenodd" clip-rule="evenodd" d="M0.0660553 173.849C-0.0823669 175.988 0.0660553 267.758 0.0660553 267.758H86.5451V211.201C86.5451 177.188 100.398 173.849 134.211 173.849H172.961V86.9292L86.5451 86.9292C22.5434 86.9292 0.0660553 127.721 0.0660553 173.849Z" fill="#95A4B5"/>
<path fill-rule="evenodd" clip-rule="evenodd" d="M345.861 260.795C346.01 262.934 345.861 349.399 345.861 349.399H259.382V298.145C259.382 264.134 245.53 260.795 211.716 260.795H172.966V173.874H259.382C323.384 173.874 345.861 214.667 345.861 260.795Z" fill="#95A4B5"/>
</g>
</svg>
