<svg width="180" height="36" viewBox="0 0 180 36" fill="none" xmlns="http://www.w3.org/2000/svg">
<g id="Frame">
<path id="Vector" d="M24.8637 28.5522C23.4737 31.2508 20.5424 33.0171 17.565 33.0171C17.3395 33.0171 17.1126 33.0068 16.8871 32.986C14.0477 32.7256 11.8403 31.5673 10.1358 29.4428C8.63298 27.6735 7.90756 25.37 8.03663 22.7841C8.22057 19.1196 10.0423 16.4729 11.9708 13.671C12.766 12.5141 13.5893 11.3187 14.2999 10.0331C15.1618 8.47383 15.7151 6.75624 15.9911 4.78419L16.0193 4.58301L16.1542 4.73389C19.8777 8.92948 19.093 12.0466 18.0428 13.2272C17.9908 13.2863 17.9255 13.3943 17.8573 13.5112C17.7594 13.6754 17.6497 13.8603 17.5235 13.9979C17.5279 14.0009 17.5339 14.0038 17.5384 14.0068C18.5768 13.3544 19.2592 12.52 19.6257 11.4533L19.6775 11.3039L19.7843 11.4208C20.9562 12.7108 21.1833 14.2228 21.0052 15.2051C20.8302 16.1682 20.3689 16.7984 19.5545 17.1919C15.8012 19.306 15.1959 21.1301 15.0995 22.6347C15.414 24.694 16.6053 25.8671 18.6421 26.1024C20.1819 26.0669 21.2649 25.5654 21.7589 24.654C22.1044 24.0149 22.146 23.4498 21.8908 22.8197C21.4666 22.3624 21.0364 22.1391 20.5765 22.1391H20.5735C19.9372 22.1391 19.2473 22.5637 18.4062 23.4734L18.3379 23.5459L18.2696 23.4734C17.7652 22.9438 17.9033 22.3003 18.0159 21.7841C18.0545 21.6006 18.0916 21.4275 18.0976 21.2781C18.1184 20.781 18.4907 20.0191 19.1627 19.525C19.3437 19.3785 19.5722 19.2779 19.8896 19.1389C20.1715 19.0146 20.5217 18.8621 20.9696 18.6166C21.5363 18.3074 22.5035 17.5544 22.6237 15.9951L22.6385 15.8072L22.7794 15.933C24.6798 17.6299 24.2793 19.1876 23.6903 20.3667C25.831 22.8609 26.2582 25.8405 24.8637 28.5522Z" fill="#00A2DE"/>
<path id="Vector_2" d="M42.4635 13.1093V25.3663C42.4635 26.7559 42.418 27.7339 42.3272 28.3003C42.2363 28.8591 41.9674 29.4369 41.5206 30.0336C41.0739 30.6226 40.4832 31.072 39.7486 31.3816C39.0217 31.6836 38.1621 31.8347 37.17 31.8347C36.0719 31.8347 35.1026 31.6534 34.262 31.2909C33.4215 30.9284 32.7929 30.4565 32.3764 29.8749C31.9598 29.2934 31.7137 28.6818 31.638 28.0397C31.5623 27.3902 31.5244 26.031 31.5244 23.9616V13.1093H36.3068V26.8616C36.3068 27.6622 36.3483 28.1756 36.4316 28.4022C36.5225 28.6213 36.7005 28.7308 36.9655 28.7308C37.2685 28.7308 37.4616 28.6099 37.5449 28.3683C37.6358 28.119 37.6812 27.5375 37.6812 26.6238V13.1093H42.4635ZM52.0794 13.1093V16.7796L48.5126 27.7793H52.0794V31.4495H43.2645V28.7874L46.945 16.7796H43.6962V13.1093H52.0794ZM53.0963 13.1093H57.8673C59.3742 13.1093 60.514 13.2263 61.2865 13.4605C62.0665 13.6946 62.695 14.1703 63.1721 14.8878C63.6492 15.5977 63.8878 16.7456 63.8878 18.3316C63.8878 19.404 63.7174 20.1516 63.3766 20.5745C63.0433 20.9974 62.3808 21.3222 61.3887 21.5488C62.4944 21.798 63.244 22.2133 63.6378 22.7948C64.0316 23.3688 64.2286 24.2524 64.2286 25.4455V27.1448C64.2286 28.3833 64.0847 29.301 63.7969 29.8975C63.5167 30.4941 63.0661 30.902 62.4452 31.121C61.8242 31.34 60.5519 31.4495 58.6284 31.4495H53.0963V13.1093ZM57.8786 16.2472V20.3253C58.0831 20.3177 58.2421 20.3139 58.3557 20.3139C58.8253 20.3139 59.1244 20.2006 59.2532 19.974C59.3819 19.74 59.4463 19.0792 59.4463 17.9917C59.4463 17.4177 59.3933 17.0174 59.2871 16.7909C59.1812 16.5569 59.0411 16.4095 58.8669 16.3491C58.7003 16.2887 58.3709 16.2547 57.8786 16.2472ZM57.8786 23.18V28.3117C58.5526 28.2889 58.9805 28.1832 59.1623 27.9944C59.3516 27.8057 59.4463 27.3412 59.4463 26.601V24.8905C59.4463 24.1051 59.363 23.6294 59.1964 23.4632C59.0296 23.2971 58.5905 23.2026 57.8786 23.18ZM65.7226 13.1093H73.6967V16.7796H70.5048V20.2573H73.4924V23.7464H70.5048V27.7793H74.0148V31.4495H65.7226V13.1093ZM86.5615 13.1093L83.8239 21.3901L86.8228 31.4495H81.8815L79.9504 23.5878V31.4495H75.168V13.1093H79.9504V20.2346L82.0746 13.1093H86.5615ZM98.1085 13.1093V31.4495H93.917L91.4293 23.112V31.4495H87.4307V13.1093H91.4293L94.1101 21.3675V13.1093H98.1085ZM99.807 13.1093H107.781V16.7796H104.589V20.2573H107.577V23.7464H104.589V27.7793H108.099V31.4495H99.807V13.1093ZM109.253 13.1093H117.352V16.7796H114.035V20.2573H116.988V23.7464H114.035V31.4495H109.253V13.1093ZM127.922 13.1093V16.7796H125.082V31.4495H120.3V16.7796H117.471V13.1093H127.922ZM128.78 13.1093H136.754V16.7796H133.562V20.2573H136.55V23.7464H133.562V27.7793H137.072V31.4495H128.78V13.1093ZM149.199 19.8608H144.416V18.1957C144.416 17.1459 144.371 16.4888 144.28 16.2245C144.189 15.9602 143.973 15.828 143.632 15.828C143.337 15.828 143.137 15.9413 143.03 16.1679C142.924 16.3944 142.871 16.976 142.871 17.9125V26.7143C142.871 27.5375 142.924 28.0813 143.03 28.3455C143.137 28.6023 143.348 28.7308 143.667 28.7308C144.015 28.7308 144.25 28.5835 144.371 28.2889C144.5 27.9944 144.564 27.4204 144.564 26.5672V24.3921H143.598V21.6054H149.199V31.4495H146.188L145.745 30.1355C145.42 30.7019 145.007 31.1286 144.507 31.4156C144.015 31.695 143.432 31.8347 142.758 31.8347C141.955 31.8347 141.202 31.6422 140.497 31.2569C139.801 30.8642 139.271 30.3808 138.907 29.807C138.543 29.233 138.316 28.6325 138.225 28.0058C138.135 27.3714 138.089 26.4237 138.089 25.1623V19.7136C138.089 17.9615 138.184 16.689 138.373 15.896C138.562 15.103 139.104 14.378 139.998 13.721C140.899 13.0564 142.061 12.7241 143.485 12.7241C144.886 12.7241 146.048 13.0111 146.972 13.585C147.896 14.159 148.498 14.8425 148.778 15.6354C149.058 16.4209 149.199 17.565 149.199 19.0679V19.8608ZM159.087 13.1093L161.825 31.4495H156.929L156.69 28.153H154.975L154.691 31.4495H149.738L152.169 13.1093H159.087ZM156.554 24.9019C156.312 22.825 156.069 20.2611 155.827 17.2101C155.342 20.7142 155.039 23.2781 154.918 24.9019H156.554ZM170.998 13.1093V16.7796L167.431 27.7793H170.998V31.4495H162.183V28.7874L165.863 16.7796H162.614V13.1093H170.998Z" fill="#EE7427"/>
</g>
</svg>
