<svg width="308" height="228" viewBox="0 0 308 228" fill="none" xmlns="http://www.w3.org/2000/svg">
<g opacity="0.1">
<path fill-rule="evenodd" clip-rule="evenodd" d="M308.014 77.4086C308.146 79.3128 308.014 154.848 308.014 154.848L230.998 154.848V110.673C230.998 80.3823 218.662 77.4086 188.549 77.4086H154.039V0L230.998 0C287.996 0 308.014 36.3282 308.014 77.4086Z" fill="#95A4B5"/>
<path fill-rule="evenodd" clip-rule="evenodd" d="M0.0591278 154.825C-0.0730438 156.729 0.0591278 238.457 0.0591278 238.457L77.0748 238.457V188.09C77.0748 157.799 89.4114 154.825 119.524 154.825H154.035V77.4165L77.0748 77.4165C20.0768 77.4165 0.0591278 113.745 0.0591278 154.825Z" fill="#95A4B5"/>
<path fill-rule="evenodd" clip-rule="evenodd" d="M308.014 232.257C308.146 234.161 308.014 311.165 308.014 311.165H230.998V265.52C230.998 235.23 218.662 232.257 188.549 232.257H154.039V154.847H230.998C287.996 154.847 308.014 191.176 308.014 232.257Z" fill="#95A4B5"/>
</g>
</svg>
